# xmcd
#
# Track frame offsets:
#   150
#   15266
#   30274
#   46561
#   65486
#   80739
#   108841
#   122852
#   139494
#   153556
#   167957
#   183436
#   211473
#   228685
#   250367
#   270382
#   284449
#   301056
#   317658
#
# Disc length: 4630 seconds
#
# Revision: 0
# Processed by: cddbd v1.5.1PL2 Copyright (c) Steve Scherf et al.
# Submitted via: GXTranscoder 2.0.1939
#
DISCID=06121413
DTITLE=Techno-1 - cv
DYEAR=1900
DGENRE=Books and Spoken
TTITLE0=10
TTITLE1=2
TTITLE2=3
TTITLE3=4
TTITLE4=5
TTITLE5=6
TTITLE6=7
TTITLE7=8
TTITLE8=9
TTITLE9=10
TTITLE10=11
TTITLE11=12
TTITLE12=13
TTITLE13=14
TTITLE14=15
TTITLE15=16
TTITLE16=17
TTITLE17=18
TTITLE18=19
EXTD=
EXTT0=
EXTT1=
EXTT2=
EXTT3=
EXTT4=
EXTT5=
EXTT6=
EXTT7=
EXTT8=
EXTT9=
EXTT10=
EXTT11=
EXTT12=
EXTT13=
EXTT14=
EXTT15=
EXTT16=
EXTT17=
EXTT18=
PLAYORDER=
